<?xml version="1.0" encoding="UTF-8"?>
<svg id="Layer_1" xmlns="http://www.w3.org/2000/svg" version="1.1" viewBox="0 0 2961.9 2966.8">
  <!-- Generator: Adobe Illustrator 29.1.0, SVG Export Plug-In . SVG Version: 2.1.0 Build 142)  -->
  <defs>
    <style>
      .st0 {
        fill: #010101;
      }

      .st1 {
        fill: #fff;
      }

      .st2 {
        fill: #ed1c24;
      }

      .st2, .st3 {
        fill-opacity: 0;
      }

      .st3 {
        fill: #fff200;
      }
    </style>
  </defs>
  <ellipse class="st1" cx="1481" cy="1483.4" rx="1481" ry="1483.4"/>
  <circle class="st2" cx="1488.7" cy="1484.7" r="1217.3"/>
  <circle class="st2" cx="1488.7" cy="1483.4" r="1010"/>
  <path d="M1501.8,44.3v258.5l6.8,1794.7h78.3v-36.4l106.5-12.6-103.2-491.6,3.6-1230.8c0-131.2-92-281.8-92-281.8h0Z"/>
  <polygon points="1475.6 44.3 867.3 1951.6 914.5 2034.7 1252.5 1615.4 1351.7 1980.6 1229.8 2097.4 1376.7 2097.4 1471.9 2097.4 1475.6 44.3"/>
  <polygon points="1488.7 2915.5 1563.8 2131.7 1413.6 2131.7 1488.7 2915.5"/>
  <path d="M2169.1,1576.5l281.4,208.3c-44.4,142.8-123.9,287.4-254.3,419.4-178.8,181.1-394,256.6-552.6,277.4l-24.6,213.8c462.3-50.3,863.5-363.9,1014.5-793.6,21.6-53.5,44.6-144.6,52.6-204.2l-299-232.1,284.7-265.3c-13.2-56.8-35.7-123.3-56.8-176.7-153.6-387.7-483.4-642.7-867.6-728.5l1.1,212.3c122.6,27.6,268.9,100.4,392.9,205.4,111.9,87.2,244.6,265.7,289.4,413.1l-261.7,228.7-468.9.2,2,160.7,17.5,62.7,449.5-1.4h0Z"/>
  <path class="st0" d="M1140.7,533c-155.9,63.1-252.2,120-390.7,262.8-173.5,180.1-270.5,428.8-270.5,687.5s94.5,500.6,271.4,688.6c97.7,109.5,276,258,582.9,309.6l27.7,213.9s-367.4-29.1-634.6-261.2c-108.8-87.1-455.6-397.1-454.4-941.5,1.3-567.8,381.2-1072.1,955.2-1196.9l-87.2,237.1h0Z"/>
  <rect class="st3" x="1333.9" y="2467.7" width="309.7" height="234.3"/>
</svg>