<?xml version="1.0" encoding="UTF-8"?>
<svg id="Layer_1" data-name="Layer 1" xmlns="http://www.w3.org/2000/svg" viewBox="0 0 2961.95 2966.83">
  <defs>
    <style>
      .cls-1 {
        fill: #ed1c24;
      }

      .cls-1, .cls-2 {
        opacity: 0;
      }

      .cls-3 {
        fill: #231f20;
      }

      .cls-4 {
        fill: #fff;
      }

      .cls-2 {
        fill: #fff200;
      }

      .cls-5 {
        fill: #010101;
      }
    </style>
  </defs>
  <ellipse class="cls-4" cx="1480.97" cy="1483.41" rx="1480.97" ry="1483.41"/>
  <circle class="cls-1" cx="1488.71" cy="1484.73" r="1217.33"/>
  <circle class="cls-1" cx="1488.71" cy="1483.41" r="1009.96"/>
  <path class="cls-3" d="M1501.83,44.25s0,144.64,0,258.45l6.85,1794.75h78.32s0-36.38,0-36.38l106.46-12.56-103.22-491.61,3.64-1230.85c0-131.17-92.04-281.79-92.04-281.79Z"/>
  <polygon class="cls-3" points="1475.59 44.25 867.3 1951.61 914.45 2034.69 1252.46 1615.41 1351.66 1980.63 1229.82 2097.45 1376.71 2097.45 1471.95 2097.45 1475.59 44.25"/>
  <polygon class="cls-3" points="1488.71 2915.48 1563.85 2131.74 1413.58 2131.74 1488.71 2915.48"/>
  <path class="cls-3" d="M2169.05,1576.49l281.42,208.28c-44.39,142.84-123.87,287.35-254.32,419.35-178.82,181.08-394.04,256.57-552.59,277.45l-24.62,213.76c462.32-50.33,863.55-363.94,1014.52-793.61,21.62-53.46,44.63-144.56,52.63-204.16l-299.04-232.11,284.67-265.31c-13.24-56.75-35.66-123.26-56.84-176.72-153.62-387.7-483.36-642.73-867.62-728.54l1.14,212.27c122.6,27.6,268.93,100.37,392.92,205.44,111.87,87.23,244.6,265.72,289.41,413.08l-261.68,228.74-468.92.15,1.96,160.65,17.48,62.66,449.47-1.38Z"/>
  <path class="cls-5" d="M1140.66,533.04c-155.86,63.14-252.24,120.04-390.65,262.83-173.54,180.13-270.45,428.76-270.45,687.55s94.54,500.63,271.44,688.61c97.72,109.52,276,257.96,582.88,309.55l27.71,213.93s-367.36-29.11-634.61-261.17c-108.75-87.06-455.59-397.13-454.38-941.46,1.26-567.84,381.24-1072.06,955.24-1196.94l-87.18,237.1Z"/>
  <rect class="cls-2" x="1333.88" y="2467.74" width="309.68" height="234.32"/>
  
  <!-- Animation for moving the entire SVG back and forth -->
  <animateTransform 
    attributeName="transform" 
    type="translate" 
    from="0,0" 
    to="100,0" 
    dur="2s" 
    keyTimes="0;0.5;1" 
    values="0,0;100,0;-100,0" 
    repeatCount="indefinite" />
</svg>
